<svg id="svg" version="1.1" xmlns="http://www.w3.org/2000/svg" xmlns:xlink="http://www.w3.org/1999/xlink" width="400" height="260" viewBox="0, 0, 400,260"><g id="svgg"><path id="path0" d="M164.583 45.307 C 158.882 45.466,158.260 45.581,158.385 46.450 C 158.530 47.467,159.705 47.735,164.974 47.955 C 175.671 48.402,176.981 50.477,170.949 57.422 C 160.848 69.051,111.507 119.472,109.404 120.313 C 108.251 120.774,107.291 120.281,106.851 119.002 C 106.444 117.820,106.379 59.386,106.781 55.879 C 107.479 49.782,109.198 48.638,118.303 48.207 C 124.009 47.936,125.239 47.514,124.475 46.086 C 123.971 45.145,120.310 45.086,114.193 45.923 C 104.312 47.273,82.225 47.260,73.698 45.897 C 68.173 45.015,65.697 45.359,65.941 46.977 C 66.096 48.004,67.165 48.428,70.313 48.710 C 78.629 49.456,81.768 50.585,83.112 53.315 L 83.724 54.557 83.922 125.000 C 84.123 196.413,84.052 204.685,83.226 206.641 C 81.946 209.671,79.140 210.945,71.745 211.854 C 68.208 212.288,67.364 212.584,68.647 212.941 C 70.299 213.401,124.159 213.192,124.627 212.724 C 125.971 211.380,124.484 210.782,118.913 210.425 C 109.802 209.842,107.891 208.485,106.897 201.891 C 106.292 197.877,106.323 130.688,106.930 129.170 C 108.130 126.172,109.209 127.005,118.880 138.394 C 122.031 142.105,126.719 147.622,129.297 150.654 C 138.144 161.061,151.309 176.810,157.927 184.905 C 177.386 208.703,177.376 208.652,162.978 211.338 C 158.750 212.127,158.282 212.293,158.804 212.815 C 159.321 213.332,221.345 213.309,221.968 212.791 C 223.140 211.818,221.043 211.017,216.066 210.535 C 205.180 209.482,205.281 209.561,188.151 188.543 C 176.656 174.439,173.634 170.788,164.760 160.286 C 158.906 153.360,145.874 138.422,142.839 135.161 C 141.837 134.084,139.251 131.328,137.093 129.036 C 126.382 117.661,125.260 116.267,125.260 114.323 C 125.260 112.704,125.353 112.591,133.675 104.036 C 142.292 95.180,152.887 84.188,160.418 76.293 C 163.497 73.065,169.196 67.088,173.084 63.011 C 176.971 58.935,180.721 54.901,181.417 54.048 C 186.425 47.910,188.478 47.040,198.899 46.640 C 203.702 46.456,204.978 46.218,204.124 45.667 C 203.404 45.202,176.926 44.961,164.583 45.307 M246.224 45.247 C 244.464 45.560,244.092 46.284,243.102 51.325 C 241.469 59.646,241.132 61.478,240.755 64.063 C 240.536 65.566,240.070 68.262,239.719 70.052 C 239.369 71.842,238.900 74.772,238.678 76.563 C 238.456 78.353,238.103 80.697,237.895 81.771 C 236.398 89.484,236.190 94.766,237.366 95.217 C 239.188 95.916,240.088 93.943,241.420 86.328 C 242.724 78.881,246.545 66.231,248.893 61.589 C 253.893 51.704,266.436 47.052,288.151 47.028 C 300.876 47.014,309.169 48.413,310.685 50.829 C 312.218 53.272,312.601 52.488,279.685 114.193 C 276.858 119.492,273.403 125.996,272.007 128.646 C 270.611 131.296,268.969 134.401,268.357 135.547 C 267.745 136.693,266.074 139.857,264.644 142.578 C 263.213 145.299,260.551 150.339,258.727 153.776 C 246.825 176.218,229.267 210.055,229.026 211.017 C 228.791 211.955,229.070 212.633,229.835 212.981 C 230.700 213.375,336.591 213.416,337.626 213.022 C 338.609 212.649,338.958 211.522,339.282 207.670 C 339.439 205.801,339.802 202.813,340.088 201.029 C 340.375 199.246,340.844 195.677,341.131 193.099 C 341.419 190.521,341.778 187.767,341.929 186.979 C 342.080 186.191,342.549 182.910,342.971 179.688 C 343.394 176.465,343.970 172.539,344.251 170.964 C 345.577 163.543,345.537 159.832,344.126 159.478 C 342.283 159.016,341.603 160.442,340.472 167.148 C 336.087 193.146,327.471 205.214,310.135 209.641 C 304.026 211.201,288.998 212.156,280.078 211.552 C 261.004 210.261,255.131 208.589,256.228 204.764 C 256.471 203.916,264.527 188.461,270.181 177.995 C 270.646 177.135,273.897 170.983,277.407 164.323 C 280.917 157.663,285.661 148.698,287.950 144.401 C 290.239 140.104,294.138 132.721,296.614 127.995 C 299.090 123.268,302.491 116.823,304.171 113.672 C 305.851 110.521,309.305 103.958,311.847 99.089 C 314.389 94.219,317.024 89.180,317.701 87.891 C 328.541 67.278,337.500 48.627,337.500 46.675 C 337.500 45.077,340.732 45.184,291.692 45.168 C 266.971 45.160,246.510 45.196,246.224 45.247 " stroke="none" fill="#d6decf" fill-rule="evenodd"></path><path id="path1" d="M0.000 130.208 L 0.000 260.417 200.000 260.417 L 400.000 260.417 400.000 130.208 L 400.000 0.000 200.000 0.000 L 0.000 0.000 0.000 130.208 M125.179 43.267 C 127.777 44.056,128.643 46.903,126.912 48.960 C 125.645 50.465,125.125 50.585,118.934 50.800 C 108.369 51.167,109.245 47.917,109.245 86.774 C 109.245 117.268,109.183 115.969,110.602 115.519 C 111.471 115.243,141.727 84.551,161.339 64.050 C 167.369 57.747,171.094 53.232,171.094 52.225 C 171.094 51.047,170.582 50.925,164.787 50.732 C 159.071 50.540,158.040 50.357,156.446 49.247 C 153.500 47.196,154.239 43.648,157.736 43.051 C 159.948 42.674,205.712 42.786,206.798 43.172 C 209.770 44.227,209.765 47.861,206.790 48.701 C 206.278 48.846,203.633 49.032,200.911 49.115 C 196.149 49.261,191.722 49.886,188.833 50.820 C 187.773 51.163,186.304 52.449,184.564 54.557 C 183.855 55.417,180.312 59.225,176.690 63.021 C 173.069 66.816,167.076 73.144,163.373 77.083 C 155.722 85.221,152.628 88.432,138.493 102.906 C 128.459 113.181,127.868 113.892,128.347 115.114 C 128.702 116.020,133.815 121.795,139.838 128.094 C 145.616 134.135,149.221 138.092,152.087 141.536 C 153.159 142.825,155.719 145.746,157.775 148.026 C 159.831 150.306,162.761 153.703,164.285 155.574 C 165.810 157.445,168.096 160.150,169.366 161.585 C 170.636 163.019,172.801 165.599,174.178 167.318 C 175.554 169.036,177.841 171.790,179.261 173.438 C 180.680 175.085,182.551 177.370,183.419 178.516 C 184.287 179.661,186.351 182.189,188.006 184.133 C 189.661 186.077,192.272 189.241,193.808 191.164 C 205.661 206.008,208.027 207.761,216.276 207.806 C 218.933 207.821,221.227 208.258,223.210 209.129 C 226.146 210.418,226.151 210.414,228.975 204.948 C 230.048 202.871,232.832 197.480,235.161 192.969 C 237.491 188.457,239.486 184.648,239.595 184.505 C 239.704 184.362,242.278 179.440,245.316 173.568 C 250.892 162.790,256.624 151.903,259.372 146.875 C 260.194 145.371,261.719 142.500,262.761 140.495 C 267.781 130.834,276.758 113.914,277.475 112.760 C 277.786 112.259,278.600 110.736,279.284 109.375 C 279.967 108.014,281.433 105.202,282.541 103.125 C 283.650 101.048,285.144 98.236,285.863 96.875 C 289.841 89.338,291.820 85.654,292.575 84.375 C 293.041 83.587,294.506 80.833,295.831 78.255 C 297.156 75.677,298.622 72.865,299.088 72.005 C 300.862 68.737,307.233 56.057,307.790 54.688 C 308.960 51.810,307.983 51.157,301.693 50.618 C 299.401 50.421,295.900 50.085,293.912 49.870 C 289.338 49.375,286.895 49.378,282.382 49.881 C 280.399 50.102,276.715 50.445,274.196 50.643 C 265.568 51.322,256.522 55.245,253.178 59.759 C 251.997 61.352,249.740 65.676,249.740 66.344 C 249.740 66.545,249.397 67.491,248.978 68.446 C 248.560 69.401,248.027 71.003,247.795 72.005 C 247.563 73.008,247.101 74.590,246.767 75.521 C 246.434 76.452,246.022 78.025,245.852 79.017 C 245.681 80.009,245.361 81.239,245.141 81.751 C 244.457 83.339,244.287 84.125,244.013 86.964 C 243.676 90.458,242.186 95.401,241.056 96.771 C 238.342 100.064,234.026 98.297,233.995 93.880 C 233.970 90.280,234.693 83.167,235.332 80.731 C 235.689 79.369,236.143 76.512,236.340 74.381 C 236.557 72.044,236.956 69.617,237.345 68.262 C 237.716 66.972,238.111 64.630,238.272 62.760 C 238.438 60.840,238.811 58.651,239.182 57.422 C 239.527 56.276,239.994 53.910,240.218 52.165 C 240.852 47.236,242.078 44.256,243.880 43.268 C 244.933 42.689,337.214 42.598,338.836 43.174 C 340.963 43.929,341.174 45.206,339.769 48.828 C 337.688 54.191,330.046 70.051,323.959 81.641 C 322.187 85.014,319.852 89.500,315.622 97.656 C 312.156 104.339,309.596 109.188,302.373 122.752 C 300.781 125.740,299.479 128.221,299.479 128.265 C 299.479 128.379,290.541 145.309,287.247 151.432 C 285.706 154.297,283.591 158.281,282.546 160.286 C 281.501 162.292,279.127 166.803,277.269 170.313 C 275.411 173.822,273.245 177.923,272.456 179.427 C 271.667 180.931,270.643 182.806,270.180 183.594 C 269.718 184.382,268.341 186.960,267.120 189.323 C 265.900 191.686,263.709 195.905,262.252 198.698 C 259.259 204.436,259.078 204.959,259.851 205.621 C 261.020 206.622,263.351 207.346,266.142 207.575 C 267.648 207.699,271.107 207.983,273.828 208.207 C 276.549 208.432,280.197 208.800,281.934 209.026 C 284.926 209.416,285.430 209.409,291.569 208.887 C 295.132 208.584,300.332 208.163,303.125 207.951 C 316.313 206.950,325.328 201.165,330.829 190.174 C 332.111 187.612,334.115 182.808,334.115 182.296 C 334.115 182.126,334.449 181.148,334.858 180.122 C 335.267 179.095,335.733 177.363,335.893 176.272 C 336.053 175.181,336.483 173.342,336.849 172.186 C 337.241 170.943,337.621 168.878,337.778 167.138 C 338.556 158.519,341.955 154.250,345.954 156.871 C 348.083 158.266,348.286 166.666,346.382 174.609 C 345.884 176.691,345.539 179.082,345.349 181.771 C 345.172 184.283,344.863 186.495,344.532 187.630 C 344.177 188.845,343.870 191.189,343.613 194.653 C 343.353 198.169,343.019 200.703,342.584 202.475 C 342.156 204.218,341.864 206.403,341.714 208.994 C 341.450 213.567,341.162 214.365,339.501 215.119 C 337.889 215.851,230.450 215.909,227.712 215.180 C 226.136 214.760,225.947 214.760,224.371 215.180 C 222.336 215.722,157.811 215.875,155.891 215.342 C 151.784 214.201,153.246 210.042,157.943 209.509 C 158.802 209.411,160.326 209.110,161.328 208.840 C 162.331 208.569,164.340 208.171,165.793 207.954 C 171.736 207.067,171.626 205.877,164.856 197.786 C 163.897 196.641,162.189 194.473,161.060 192.969 C 159.932 191.465,158.080 189.180,156.946 187.891 C 155.811 186.602,153.876 184.258,152.644 182.682 C 151.412 181.107,149.215 178.458,147.763 176.796 C 146.310 175.134,144.013 172.380,142.658 170.676 C 141.303 168.972,139.105 166.348,137.773 164.844 C 136.441 163.340,134.225 160.703,132.848 158.984 C 131.472 157.266,129.086 154.444,127.546 152.713 C 126.007 150.983,123.559 148.112,122.107 146.333 C 119.343 142.948,113.307 135.985,111.684 134.310 C 109.121 131.664,109.245 130.022,109.245 166.667 C 109.245 210.788,108.375 207.355,119.661 207.786 C 125.406 208.005,125.867 208.124,127.292 209.747 C 128.880 211.555,128.567 213.792,126.563 214.963 C 125.641 215.501,69.136 215.984,65.641 215.483 C 64.227 215.281,62.760 213.968,62.760 212.904 C 62.760 210.699,64.410 209.740,68.631 209.490 C 74.947 209.116,79.883 207.541,80.754 205.624 C 81.324 204.370,81.542 57.181,80.977 55.148 C 80.437 53.204,75.686 51.670,67.839 50.907 C 64.569 50.589,63.041 49.445,62.821 47.151 C 62.418 42.964,65.781 42.305,80.339 43.719 C 92.535 44.903,92.485 44.902,99.609 44.305 C 117.949 42.767,122.875 42.567,125.179 43.267 " stroke="none" fill="#040404" fill-rule="evenodd"></path><path id="path2" d="M119.010 42.889 C 116.412 42.991,107.643 43.631,99.609 44.305 C 92.485 44.902,92.535 44.903,80.339 43.719 C 65.781 42.305,62.418 42.964,62.821 47.151 C 63.041 49.445,64.569 50.589,67.839 50.907 C 75.686 51.670,80.437 53.204,80.977 55.148 C 81.542 57.181,81.324 204.370,80.754 205.624 C 79.883 207.541,74.947 209.116,68.631 209.490 C 64.410 209.740,62.760 210.699,62.760 212.904 C 62.760 213.968,64.227 215.281,65.641 215.483 C 69.136 215.984,125.641 215.501,126.563 214.963 C 128.567 213.792,128.880 211.555,127.292 209.747 C 125.867 208.124,125.406 208.005,119.661 207.786 C 108.375 207.355,109.245 210.788,109.245 166.667 C 109.245 130.022,109.121 131.664,111.684 134.310 C 113.307 135.985,119.343 142.948,122.107 146.333 C 123.559 148.112,126.007 150.983,127.546 152.713 C 129.086 154.444,131.472 157.266,132.848 158.984 C 134.225 160.703,136.441 163.340,137.773 164.844 C 139.105 166.348,141.303 168.972,142.658 170.676 C 144.013 172.380,146.310 175.134,147.763 176.796 C 149.215 178.458,151.412 181.107,152.644 182.682 C 153.876 184.258,155.811 186.602,156.946 187.891 C 158.080 189.180,159.932 191.465,161.060 192.969 C 162.189 194.473,163.897 196.641,164.856 197.786 C 171.626 205.877,171.736 207.067,165.793 207.954 C 164.340 208.171,162.331 208.569,161.328 208.840 C 160.326 209.110,158.802 209.411,157.943 209.509 C 153.246 210.042,151.784 214.201,155.891 215.342 C 157.811 215.875,222.336 215.722,224.371 215.180 C 225.947 214.760,226.136 214.760,227.712 215.180 C 230.450 215.909,337.889 215.851,339.501 215.119 C 341.162 214.365,341.450 213.567,341.714 208.994 C 341.864 206.403,342.156 204.218,342.584 202.475 C 343.019 200.703,343.353 198.169,343.613 194.653 C 343.870 191.189,344.177 188.845,344.532 187.630 C 344.863 186.495,345.172 184.283,345.349 181.771 C 345.539 179.082,345.884 176.691,346.382 174.609 C 348.286 166.666,348.083 158.266,345.954 156.871 C 341.955 154.250,338.556 158.519,337.778 167.138 C 337.621 168.878,337.241 170.943,336.849 172.186 C 336.483 173.342,336.053 175.181,335.893 176.272 C 335.733 177.363,335.267 179.095,334.858 180.122 C 334.449 181.148,334.115 182.126,334.115 182.296 C 334.115 182.808,332.111 187.612,330.829 190.174 C 325.328 201.165,316.313 206.950,303.125 207.951 C 300.332 208.163,295.132 208.584,291.569 208.887 C 285.430 209.409,284.926 209.416,281.934 209.026 C 280.197 208.800,276.549 208.432,273.828 208.207 C 271.107 207.983,267.648 207.699,266.142 207.575 C 263.351 207.346,261.020 206.622,259.851 205.621 C 259.078 204.959,259.259 204.436,262.252 198.698 C 263.709 195.905,265.900 191.686,267.120 189.323 C 268.341 186.960,269.718 184.382,270.180 183.594 C 270.643 182.806,271.667 180.931,272.456 179.427 C 273.245 177.923,275.411 173.822,277.269 170.313 C 279.127 166.803,281.501 162.292,282.546 160.286 C 283.591 158.281,285.706 154.297,287.247 151.432 C 290.541 145.309,299.479 128.379,299.479 128.265 C 299.479 128.221,300.781 125.740,302.373 122.752 C 309.596 109.188,312.156 104.339,315.622 97.656 C 319.852 89.500,322.187 85.014,323.959 81.641 C 330.046 70.051,337.688 54.191,339.769 48.828 C 341.174 45.206,340.963 43.929,338.836 43.174 C 337.214 42.598,244.933 42.689,243.880 43.268 C 242.078 44.256,240.852 47.236,240.218 52.165 C 239.994 53.910,239.527 56.276,239.182 57.422 C 238.811 58.651,238.438 60.840,238.272 62.760 C 238.111 64.630,237.716 66.972,237.345 68.262 C 236.956 69.617,236.557 72.044,236.340 74.381 C 236.143 76.512,235.689 79.369,235.332 80.731 C 234.693 83.167,233.970 90.280,233.995 93.880 C 234.026 98.297,238.342 100.064,241.056 96.771 C 242.186 95.401,243.676 90.458,244.013 86.964 C 244.287 84.125,244.457 83.339,245.141 81.751 C 245.361 81.239,245.681 80.009,245.852 79.017 C 246.022 78.025,246.434 76.452,246.767 75.521 C 247.101 74.590,247.563 73.008,247.795 72.005 C 248.027 71.003,248.560 69.401,248.978 68.446 C 249.397 67.491,249.740 66.545,249.740 66.344 C 249.740 65.676,251.997 61.352,253.178 59.759 C 256.522 55.245,265.568 51.322,274.196 50.643 C 276.715 50.445,280.399 50.102,282.382 49.881 C 286.895 49.378,289.338 49.375,293.912 49.870 C 295.900 50.085,299.401 50.421,301.693 50.618 C 307.983 51.157,308.960 51.810,307.790 54.688 C 307.233 56.057,300.862 68.737,299.088 72.005 C 298.622 72.865,297.156 75.677,295.831 78.255 C 294.506 80.833,293.041 83.587,292.575 84.375 C 291.820 85.654,289.841 89.338,285.863 96.875 C 285.144 98.236,283.650 101.048,282.541 103.125 C 281.433 105.202,279.967 108.014,279.284 109.375 C 278.600 110.736,277.786 112.259,277.475 112.760 C 276.758 113.914,267.781 130.834,262.761 140.495 C 261.719 142.500,260.194 145.371,259.372 146.875 C 256.624 151.903,250.892 162.790,245.316 173.568 C 242.278 179.440,239.704 184.362,239.595 184.505 C 239.486 184.648,237.491 188.457,235.161 192.969 C 225.061 212.528,226.505 210.575,223.210 209.129 C 221.227 208.258,218.933 207.821,216.276 207.806 C 208.027 207.761,205.661 206.008,193.808 191.164 C 192.272 189.241,189.661 186.077,188.006 184.133 C 186.351 182.189,184.287 179.661,183.419 178.516 C 182.551 177.370,180.680 175.085,179.261 173.438 C 177.841 171.790,175.554 169.036,174.178 167.318 C 172.801 165.599,170.636 163.019,169.366 161.585 C 168.096 160.150,165.810 157.445,164.285 155.574 C 162.761 153.703,159.831 150.306,157.775 148.026 C 155.719 145.746,153.159 142.825,152.087 141.536 C 149.221 138.092,145.616 134.135,139.838 128.094 C 133.815 121.795,128.702 116.020,128.347 115.114 C 127.868 113.892,128.459 113.181,138.493 102.906 C 152.628 88.432,155.722 85.221,163.373 77.083 C 167.076 73.144,173.069 66.816,176.690 63.021 C 180.312 59.225,183.855 55.417,184.564 54.557 C 186.304 52.449,187.773 51.163,188.833 50.820 C 191.722 49.886,196.149 49.261,200.911 49.115 C 203.633 49.032,206.278 48.846,206.790 48.701 C 209.765 47.861,209.770 44.227,206.798 43.172 C 205.712 42.786,159.948 42.674,157.736 43.051 C 154.239 43.648,153.500 47.196,156.446 49.247 C 158.040 50.357,159.071 50.540,164.787 50.732 C 174.482 51.056,175.512 49.444,146.371 79.557 C 130.954 95.489,111.230 115.319,110.602 115.519 C 109.183 115.969,109.245 117.268,109.245 86.774 C 109.245 47.917,108.369 51.167,118.934 50.800 C 125.838 50.561,127.238 50.001,127.750 47.275 C 128.374 43.950,125.732 42.624,119.010 42.889 M125.019 44.420 C 126.504 45.167,126.973 46.804,126.042 47.987 C 124.955 49.369,124.332 49.511,118.309 49.742 C 110.752 50.031,109.677 50.530,108.657 54.218 C 108.237 55.736,108.203 58.170,108.203 86.514 C 108.203 120.800,108.072 118.448,109.944 117.702 C 111.402 117.122,131.521 96.795,159.554 67.578 C 175.845 50.599,176.046 49.894,164.725 49.494 C 157.890 49.253,155.990 48.570,155.990 46.354 C 155.990 43.860,155.773 43.880,182.552 43.880 C 207.345 43.880,206.960 43.858,207.420 45.308 C 208.080 47.385,206.855 47.872,200.485 48.069 C 189.610 48.404,187.168 49.288,183.151 54.341 C 182.448 55.224,178.704 59.267,174.830 63.325 C 170.956 67.383,165.344 73.281,162.357 76.432 C 155.226 83.956,146.394 93.130,135.779 104.041 C 131.036 108.915,127.070 113.174,126.965 113.505 C 126.420 115.220,128.187 117.515,138.016 127.865 C 143.897 134.057,147.294 137.769,150.528 141.536 C 151.880 143.112,154.499 146.100,156.347 148.177 C 158.195 150.254,161.127 153.652,162.862 155.729 C 164.596 157.806,167.422 161.154,169.141 163.169 C 172.179 166.730,181.226 177.643,184.289 181.440 C 192.947 192.175,200.825 201.543,203.137 203.855 C 206.825 207.543,208.922 208.396,215.653 208.943 C 223.572 209.586,227.320 211.796,223.998 213.862 L 223.047 214.453 190.104 214.520 C 154.207 214.593,155.521 214.643,155.251 213.196 C 154.961 211.643,155.911 210.893,158.594 210.554 C 159.382 210.454,160.671 210.213,161.458 210.018 C 162.246 209.822,164.343 209.416,166.118 209.116 C 170.457 208.380,171.615 207.706,171.615 205.915 C 171.615 204.758,169.741 201.907,165.761 197.005 C 164.598 195.573,162.834 193.346,161.840 192.057 C 160.847 190.768,159.035 188.542,157.814 187.109 C 156.592 185.677,154.667 183.333,153.536 181.901 C 152.404 180.469,150.464 178.125,149.223 176.693 C 147.982 175.260,145.635 172.448,144.008 170.443 C 142.381 168.438,139.922 165.508,138.543 163.932 C 137.164 162.357,134.995 159.779,133.723 158.203 C 132.452 156.628,130.226 153.991,128.778 152.344 C 127.330 150.697,124.980 147.943,123.555 146.224 C 111.779 132.018,109.087 129.397,108.327 131.397 C 107.842 132.671,107.997 198.809,108.492 201.922 C 109.391 207.580,110.715 208.466,118.880 208.874 C 121.602 209.010,124.192 209.240,124.636 209.386 C 127.162 210.213,127.644 213.268,125.397 214.207 C 124.001 214.790,66.057 214.651,65.160 214.063 C 62.657 212.421,64.794 210.837,70.052 210.436 C 77.394 209.876,80.717 208.597,81.954 205.856 C 82.418 204.827,82.600 58.745,82.141 55.253 C 81.733 52.142,78.884 51.047,68.099 49.858 C 64.529 49.465,62.733 46.738,64.864 44.945 C 66.256 43.773,67.724 43.753,78.125 44.762 C 86.213 45.547,92.550 45.896,95.443 45.715 C 103.989 45.181,106.714 44.987,112.109 44.526 C 121.262 43.744,123.636 43.724,125.019 44.420 M338.458 44.427 C 339.327 45.074,339.486 45.818,339.063 47.254 C 338.063 50.647,329.284 69.074,323.177 80.599 C 322.646 81.602,320.419 85.879,318.229 90.104 C 313.904 98.450,308.607 108.536,303.391 118.359 C 301.566 121.797,298.105 128.359,295.700 132.943 C 293.296 137.526,289.547 144.616,287.370 148.698 C 285.193 152.780,282.090 158.639,280.474 161.719 C 276.826 168.674,271.606 178.506,269.277 182.813 C 268.308 184.603,266.694 187.650,265.690 189.583 C 264.686 191.517,262.605 195.498,261.065 198.429 C 257.980 204.302,257.724 204.942,258.085 205.891 C 258.595 207.234,262.418 208.443,267.448 208.852 C 269.382 209.010,272.604 209.301,274.609 209.500 C 283.272 210.358,285.095 210.467,287.996 210.301 C 308.967 209.101,313.841 208.065,321.296 203.225 C 328.326 198.661,334.235 188.624,336.993 176.563 C 337.403 174.772,337.907 172.769,338.115 172.111 C 338.323 171.453,338.688 169.298,338.927 167.323 C 339.902 159.262,342.383 155.713,345.389 158.077 C 346.993 159.339,346.952 167.232,345.307 173.708 C 345.033 174.788,344.632 177.600,344.416 179.958 C 344.023 184.235,343.858 185.345,343.139 188.542 C 342.930 189.473,342.623 192.109,342.456 194.401 C 342.290 196.693,341.870 199.951,341.523 201.643 C 341.177 203.334,340.780 206.412,340.641 208.483 C 340.358 212.708,340.108 213.474,338.802 214.127 C 337.324 214.866,230.101 214.819,228.472 214.079 C 227.387 213.586,226.823 212.912,226.823 212.107 C 226.823 211.715,230.264 204.957,238.358 189.453 C 240.077 186.159,243.637 179.324,246.267 174.264 C 251.348 164.489,255.437 156.707,258.401 151.172 C 260.307 147.612,261.599 145.172,271.318 126.782 C 274.623 120.529,277.960 114.260,278.735 112.850 C 279.509 111.440,283.048 104.779,286.599 98.047 C 290.150 91.315,293.308 85.397,293.616 84.896 C 293.925 84.395,295.061 82.285,296.141 80.208 C 297.222 78.132,299.813 73.151,301.900 69.141 C 310.650 52.323,310.790 51.868,307.631 50.471 C 305.180 49.387,289.504 47.995,284.684 48.433 C 274.072 49.397,268.932 50.023,267.518 50.523 C 266.692 50.816,265.313 51.237,264.453 51.460 C 255.549 53.769,250.394 59.374,247.111 70.313 C 246.832 71.243,246.260 73.118,245.841 74.479 C 245.422 75.840,244.953 77.598,244.799 78.385 C 244.645 79.173,244.235 80.697,243.887 81.771 C 243.539 82.845,243.068 85.103,242.841 86.788 C 241.756 94.850,239.663 98.228,236.613 96.839 C 234.799 96.012,234.788 87.030,236.593 80.469 C 236.810 79.681,237.161 77.354,237.373 75.298 C 237.586 73.243,238.047 70.372,238.399 68.918 C 238.751 67.465,239.165 65.046,239.320 63.542 C 239.474 62.038,239.890 59.635,240.243 58.203 C 240.597 56.771,241.056 54.358,241.264 52.840 C 241.776 49.110,243.040 45.188,243.916 44.614 C 245.123 43.823,246.229 43.805,292.103 43.843 L 337.722 43.880 338.458 44.427 " stroke="none" fill="#51534f" fill-rule="evenodd"></path><path id="path3" d="M66.279 44.663 C 65.035 45.107,64.583 45.659,64.583 46.737 C 64.583 48.579,65.982 49.297,70.443 49.745 C 78.765 50.580,81.687 51.808,82.521 54.818 C 82.912 56.229,82.924 203.493,82.533 205.208 C 81.745 208.668,78.222 210.254,69.905 210.893 C 66.323 211.168,65.104 211.610,65.104 212.631 C 65.104 214.276,63.482 214.193,95.607 214.193 L 124.701 214.193 125.437 213.646 C 126.249 213.042,126.523 211.838,126.050 210.952 C 125.455 209.842,124.384 209.587,119.311 209.350 C 110.965 208.961,109.257 207.967,108.159 202.865 C 107.710 200.782,107.682 198.582,107.682 165.697 L 107.682 130.744 108.250 130.176 C 109.066 129.360,110.073 129.855,111.970 132.005 C 114.721 135.123,119.269 140.436,122.470 144.271 C 124.204 146.348,127.152 149.815,129.022 151.976 C 130.892 154.136,134.063 157.874,136.068 160.281 C 138.073 162.688,141.334 166.603,143.314 168.982 C 145.294 171.361,147.768 174.303,148.812 175.521 C 149.855 176.738,152.038 179.375,153.664 181.380 C 155.290 183.385,157.562 186.149,158.713 187.522 C 165.417 195.512,171.780 204.046,172.031 205.383 C 172.560 208.206,171.062 208.850,159.375 210.815 C 156.783 211.251,156.032 211.591,155.823 212.421 C 155.340 214.348,154.894 214.323,190.052 214.321 C 221.807 214.320,222.695 214.294,223.763 213.345 C 225.731 211.596,222.293 209.897,215.754 209.388 C 206.284 208.651,204.656 207.401,191.153 190.495 C 189.665 188.633,187.497 185.996,186.334 184.635 C 185.172 183.275,183.529 181.283,182.685 180.208 C 180.508 177.439,172.061 167.242,168.353 162.906 C 166.630 160.892,164.351 158.190,163.289 156.901 C 162.226 155.612,159.768 152.752,157.827 150.545 C 155.885 148.338,152.556 144.529,150.428 142.081 C 146.049 137.044,146.118 137.120,138.643 129.161 C 128.000 117.830,126.302 115.791,126.302 114.336 C 126.302 113.167,127.355 111.913,133.971 105.208 C 141.834 97.239,152.014 86.692,162.240 75.920 C 166.178 71.771,172.038 65.619,175.262 62.248 C 178.485 58.878,181.953 55.124,182.969 53.906 C 187.248 48.777,189.307 48.022,199.919 47.693 C 205.733 47.512,206.734 47.277,206.979 46.033 C 207.316 44.325,206.589 44.274,181.901 44.274 C 156.616 44.274,156.510 44.282,156.510 46.284 C 156.510 48.220,158.399 48.853,164.789 49.061 C 174.184 49.367,175.264 50.739,170.498 56.306 C 164.729 63.044,135.291 93.595,118.579 110.186 C 109.804 118.899,109.288 119.300,108.226 118.238 L 107.682 117.694 107.607 88.600 C 107.498 46.895,106.684 49.802,118.620 49.271 C 124.974 48.988,126.042 48.595,126.042 46.537 C 126.042 44.237,123.467 43.856,114.230 44.788 C 101.585 46.064,92.669 46.333,83.724 45.707 C 77.925 45.301,77.090 45.222,72.448 44.640 C 68.819 44.185,67.611 44.189,66.279 44.663 M245.052 44.454 C 243.568 45.000,242.492 47.718,241.670 52.990 C 241.402 54.711,240.944 57.116,240.652 58.333 C 240.360 59.551,239.946 61.971,239.732 63.711 C 239.519 65.451,239.054 68.147,238.700 69.701 C 238.346 71.255,237.931 73.821,237.777 75.403 C 237.622 76.986,237.209 79.681,236.859 81.393 C 235.335 88.839,235.190 95.280,236.524 96.214 C 239.121 98.033,241.038 95.187,242.220 87.760 C 242.773 84.278,242.895 83.744,244.508 77.734 C 249.362 59.647,253.378 54.169,263.975 51.184 C 264.811 50.949,265.937 50.586,266.477 50.378 C 271.296 48.522,288.550 47.501,297.917 48.518 C 312.220 50.070,312.102 49.877,306.105 61.809 C 301.658 70.656,301.715 70.548,290.683 91.276 C 286.034 100.013,279.330 112.611,275.786 119.271 C 272.243 125.931,267.965 134.017,266.281 137.240 C 264.597 140.462,262.428 144.564,261.461 146.354 C 259.334 150.291,253.559 161.226,249.287 169.401 C 232.740 201.070,227.941 210.387,227.725 211.263 C 227.450 212.375,227.792 213.228,228.715 213.732 C 229.821 214.337,336.995 214.461,338.419 213.860 C 339.699 213.319,339.892 212.713,340.265 208.062 C 340.456 205.682,340.784 202.983,340.994 202.063 C 341.474 199.960,341.837 197.166,342.194 192.839 C 342.347 190.977,342.640 188.728,342.843 187.843 C 343.380 185.510,343.687 183.372,344.014 179.688 C 344.173 177.897,344.578 175.143,344.914 173.568 C 345.862 169.119,346.534 161.595,346.111 160.180 C 345.707 158.828,344.865 158.073,343.763 158.073 C 341.458 158.073,340.219 160.575,339.443 166.797 C 339.107 169.490,338.355 173.041,336.880 178.906 C 332.007 198.281,320.985 208.049,302.083 209.743 C 288.816 210.932,284.198 210.918,271.238 209.650 C 257.413 208.299,255.800 207.306,258.724 201.953 C 259.658 200.243,265.312 189.409,266.846 186.392 C 267.373 185.354,268.114 183.978,268.491 183.333 C 268.869 182.689,272.087 176.654,275.642 169.922 C 279.197 163.190,284.533 153.112,287.500 147.526 C 290.467 141.940,294.334 134.616,296.095 131.250 C 297.856 127.884,301.256 121.439,303.652 116.927 C 311.057 102.981,320.536 84.842,326.582 73.047 C 332.074 62.333,338.538 48.205,338.736 46.484 C 338.999 44.185,343.933 44.407,291.574 44.355 C 266.202 44.330,245.267 44.374,245.052 44.454 M195.443 45.275 C 200.026 45.367,203.933 45.544,204.124 45.667 C 204.978 46.218,203.702 46.456,198.899 46.640 C 188.478 47.040,186.425 47.910,181.417 54.048 C 180.721 54.901,176.971 58.935,173.084 63.011 C 169.196 67.088,163.497 73.065,160.418 76.293 C 152.887 84.188,142.292 95.180,133.675 104.036 C 125.353 112.591,125.260 112.704,125.260 114.323 C 125.260 116.267,126.382 117.661,137.093 129.036 C 139.251 131.328,141.837 134.084,142.839 135.161 C 145.874 138.422,158.906 153.360,164.760 160.286 C 173.634 170.788,176.656 174.439,188.151 188.543 C 205.281 209.561,205.180 209.482,216.066 210.535 C 221.043 211.017,223.140 211.818,221.968 212.791 C 221.345 213.309,159.321 213.332,158.804 212.815 C 158.282 212.293,158.750 212.127,162.978 211.338 C 170.539 209.928,172.110 209.305,172.961 207.383 C 174.022 204.984,172.574 202.818,157.927 184.905 C 151.309 176.810,138.144 161.061,129.297 150.654 C 126.719 147.622,122.031 142.105,118.880 138.394 C 109.209 127.005,108.130 126.172,106.930 129.170 C 106.323 130.688,106.292 197.877,106.897 201.891 C 107.891 208.485,109.802 209.842,118.913 210.425 C 124.484 210.782,125.971 211.380,124.627 212.724 C 124.159 213.192,70.299 213.401,68.647 212.941 C 67.364 212.584,68.208 212.288,71.745 211.854 C 79.140 210.945,81.946 209.671,83.226 206.641 C 84.052 204.685,84.123 196.413,83.922 125.000 L 83.724 54.557 83.112 53.315 C 81.768 50.585,78.629 49.456,70.313 48.710 C 67.165 48.428,66.096 48.004,65.941 46.977 C 65.697 45.359,68.173 45.015,73.698 45.897 C 82.225 47.260,104.312 47.273,114.193 45.923 C 120.310 45.086,123.971 45.145,124.475 46.086 C 125.239 47.514,124.009 47.936,118.303 48.207 C 109.198 48.638,107.479 49.782,106.781 55.879 C 106.379 59.386,106.444 117.820,106.851 119.002 C 107.291 120.281,108.251 120.774,109.404 120.313 C 111.507 119.472,160.848 69.051,170.949 57.422 C 176.981 50.477,175.671 48.402,164.974 47.955 C 159.705 47.735,158.530 47.467,158.385 46.450 C 158.337 46.119,158.493 45.811,158.775 45.678 C 159.797 45.196,180.304 44.970,195.443 45.275 M337.069 45.540 C 338.075 46.375,337.720 47.349,331.781 60.026 C 328.922 66.129,323.447 76.965,317.701 87.891 C 317.024 89.180,314.389 94.219,311.847 99.089 C 309.305 103.958,305.851 110.521,304.171 113.672 C 302.491 116.823,299.090 123.268,296.614 127.995 C 294.138 132.721,290.239 140.104,287.950 144.401 C 285.661 148.698,280.917 157.663,277.407 164.323 C 273.897 170.983,270.646 177.135,270.181 177.995 C 264.527 188.461,256.471 203.916,256.228 204.764 C 255.131 208.589,261.004 210.261,280.078 211.552 C 288.998 212.156,304.026 211.201,310.135 209.641 C 327.471 205.214,336.087 193.146,340.472 167.148 C 341.603 160.442,342.283 159.016,344.126 159.478 C 345.537 159.832,345.577 163.543,344.251 170.964 C 343.970 172.539,343.394 176.465,342.971 179.688 C 342.549 182.910,342.080 186.191,341.929 186.979 C 341.778 187.767,341.419 190.521,341.131 193.099 C 340.844 195.677,340.375 199.246,340.088 201.029 C 339.802 202.813,339.439 205.801,339.282 207.670 C 338.958 211.522,338.609 212.649,337.626 213.022 C 336.591 213.416,230.700 213.375,229.835 212.981 C 229.070 212.633,228.791 211.955,229.026 211.017 C 229.267 210.055,246.825 176.218,258.727 153.776 C 260.551 150.339,263.213 145.299,264.644 142.578 C 266.074 139.857,267.745 136.693,268.357 135.547 C 268.969 134.401,270.611 131.296,272.007 128.646 C 273.403 125.996,276.858 119.492,279.685 114.193 C 312.601 52.488,312.218 53.272,310.685 50.829 C 307.877 46.354,278.587 45.559,265.429 49.601 C 256.669 52.291,251.816 55.809,248.893 61.589 C 246.545 66.231,242.724 78.881,241.420 86.328 C 240.088 93.943,239.188 95.916,237.366 95.217 C 236.190 94.766,236.398 89.484,237.895 81.771 C 238.103 80.697,238.456 78.353,238.678 76.563 C 238.900 74.772,239.369 71.842,239.719 70.052 C 240.070 68.262,240.536 65.566,240.755 64.063 C 241.132 61.478,241.469 59.646,243.102 51.325 C 244.092 46.284,244.464 45.560,246.224 45.247 C 248.038 44.924,336.672 45.210,337.069 45.540 " stroke="none" fill="#7c847c" fill-rule="evenodd"></path><path id="path4" d="M119.531 43.938 C 118.743 43.980,115.404 44.244,112.109 44.526 C 106.714 44.987,103.989 45.181,95.443 45.715 C 92.550 45.896,86.213 45.547,78.125 44.762 C 67.724 43.753,66.256 43.773,64.864 44.945 C 62.733 46.738,64.529 49.465,68.099 49.858 C 78.884 51.047,81.733 52.142,82.141 55.253 C 82.600 58.745,82.418 204.827,81.954 205.856 C 80.717 208.597,77.394 209.876,70.052 210.436 C 64.794 210.837,62.657 212.421,65.160 214.063 C 66.057 214.651,124.001 214.790,125.397 214.207 C 127.644 213.268,127.162 210.213,124.636 209.386 C 124.192 209.240,121.602 209.010,118.880 208.874 C 110.715 208.466,109.391 207.580,108.492 201.922 C 107.997 198.809,107.842 132.671,108.327 131.397 C 109.087 129.397,111.779 132.018,123.555 146.224 C 124.980 147.943,127.330 150.697,128.778 152.344 C 130.226 153.991,132.452 156.628,133.723 158.203 C 134.995 159.779,137.164 162.357,138.543 163.932 C 139.922 165.508,142.381 168.438,144.008 170.443 C 145.635 172.448,147.982 175.260,149.223 176.693 C 150.464 178.125,152.404 180.469,153.536 181.901 C 154.667 183.333,156.592 185.677,157.814 187.109 C 159.035 188.542,160.847 190.768,161.840 192.057 C 162.834 193.346,164.598 195.573,165.761 197.005 C 169.741 201.907,171.615 204.758,171.615 205.915 C 171.615 207.706,170.457 208.380,166.118 209.116 C 164.343 209.416,162.246 209.822,161.458 210.018 C 160.671 210.213,159.382 210.454,158.594 210.554 C 155.911 210.893,154.961 211.643,155.251 213.196 C 155.521 214.643,154.207 214.593,190.104 214.520 L 223.047 214.453 223.998 213.862 C 227.320 211.796,223.572 209.586,215.653 208.943 C 208.922 208.396,206.825 207.543,203.137 203.855 C 200.825 201.543,192.947 192.175,184.289 181.440 C 181.226 177.643,172.179 166.730,169.141 163.169 C 167.422 161.154,164.596 157.806,162.862 155.729 C 161.127 153.652,158.195 150.254,156.347 148.177 C 154.499 146.100,151.880 143.112,150.528 141.536 C 147.294 137.769,143.897 134.057,138.016 127.865 C 128.187 117.515,126.420 115.220,126.965 113.505 C 127.070 113.174,131.036 108.915,135.779 104.041 C 146.394 93.130,155.226 83.956,162.357 76.432 C 165.344 73.281,170.956 67.383,174.830 63.325 C 178.704 59.267,182.448 55.224,183.151 54.341 C 187.168 49.288,189.610 48.404,200.485 48.069 C 206.855 47.872,208.080 47.385,207.420 45.308 C 206.960 43.858,207.345 43.880,182.552 43.880 C 155.773 43.880,155.990 43.860,155.990 46.354 C 155.990 48.570,157.890 49.253,164.725 49.494 C 176.046 49.894,175.845 50.599,159.554 67.578 C 131.521 96.795,111.402 117.122,109.944 117.702 C 108.072 118.448,108.203 120.800,108.203 86.514 C 108.203 58.170,108.237 55.736,108.657 54.218 C 109.677 50.530,110.752 50.031,118.309 49.742 C 125.210 49.477,126.859 48.801,126.468 46.396 C 126.139 44.369,124.225 43.690,119.531 43.938 M245.530 43.994 C 243.282 44.436,242.072 46.946,241.264 52.840 C 241.056 54.358,240.597 56.771,240.243 58.203 C 239.890 59.635,239.474 62.038,239.320 63.542 C 239.165 65.046,238.751 67.465,238.399 68.918 C 238.047 70.372,237.586 73.243,237.373 75.298 C 237.161 77.354,236.810 79.681,236.593 80.469 C 234.788 87.030,234.799 96.012,236.613 96.839 C 239.663 98.228,241.756 94.850,242.841 86.788 C 243.068 85.103,243.539 82.845,243.887 81.771 C 244.235 80.697,244.645 79.173,244.799 78.385 C 244.953 77.598,245.422 75.840,245.841 74.479 C 246.260 73.118,246.832 71.243,247.111 70.313 C 250.394 59.374,255.549 53.769,264.453 51.460 C 265.313 51.237,266.692 50.816,267.518 50.523 C 268.932 50.023,274.072 49.397,284.684 48.433 C 289.504 47.995,305.180 49.387,307.631 50.471 C 310.790 51.868,310.650 52.323,301.900 69.141 C 299.813 73.151,297.222 78.132,296.141 80.208 C 295.061 82.285,293.925 84.395,293.616 84.896 C 293.308 85.397,290.150 91.315,286.599 98.047 C 283.048 104.779,279.509 111.440,278.735 112.850 C 277.960 114.260,274.623 120.529,271.318 126.782 C 261.599 145.172,260.307 147.612,258.401 151.172 C 255.437 156.707,251.348 164.489,246.267 174.264 C 243.637 179.324,240.077 186.159,238.358 189.453 C 230.264 204.957,226.823 211.715,226.823 212.107 C 226.823 212.912,227.387 213.586,228.472 214.079 C 230.101 214.819,337.324 214.866,338.802 214.127 C 340.108 213.474,340.358 212.708,340.641 208.483 C 340.780 206.412,341.177 203.334,341.523 201.643 C 341.870 199.951,342.290 196.693,342.456 194.401 C 342.623 192.109,342.930 189.473,343.139 188.542 C 343.858 185.345,344.023 184.235,344.416 179.958 C 344.632 177.600,345.033 174.788,345.307 173.708 C 346.952 167.232,346.993 159.339,345.389 158.077 C 342.383 155.713,339.902 159.262,338.927 167.323 C 338.688 169.298,338.323 171.453,338.115 172.111 C 337.907 172.769,337.403 174.772,336.993 176.563 C 334.235 188.624,328.326 198.661,321.296 203.225 C 313.841 208.065,308.967 209.101,287.996 210.301 C 285.095 210.467,283.272 210.358,274.609 209.500 C 272.604 209.301,269.382 209.010,267.448 208.852 C 262.418 208.443,258.595 207.234,258.085 205.891 C 257.724 204.942,257.980 204.302,261.065 198.429 C 262.605 195.498,264.686 191.517,265.690 189.583 C 266.694 187.650,268.308 184.603,269.277 182.813 C 271.606 178.506,276.826 168.674,280.474 161.719 C 282.090 158.639,285.193 152.780,287.370 148.698 C 289.547 144.616,293.296 137.526,295.700 132.943 C 298.105 128.359,301.566 121.797,303.391 118.359 C 308.607 108.536,313.904 98.450,318.229 90.104 C 320.419 85.879,322.646 81.602,323.177 80.599 C 329.284 69.074,338.063 50.647,339.063 47.254 C 339.486 45.818,339.327 45.074,338.458 44.427 L 337.722 43.880 292.103 43.843 C 267.013 43.822,246.055 43.890,245.530 43.994 M72.448 44.640 C 86.795 46.439,97.489 46.477,114.230 44.788 C 123.467 43.856,126.042 44.237,126.042 46.537 C 126.042 48.595,124.974 48.988,118.620 49.271 C 106.684 49.802,107.498 46.895,107.607 88.600 L 107.682 117.694 108.226 118.238 C 109.288 119.300,109.804 118.899,118.579 110.186 C 135.291 93.595,164.729 63.044,170.498 56.306 C 175.264 50.739,174.184 49.367,164.789 49.061 C 158.399 48.853,156.510 48.220,156.510 46.284 C 156.510 44.282,156.616 44.274,181.901 44.274 C 206.589 44.274,207.316 44.325,206.979 46.033 C 206.734 47.277,205.733 47.512,199.919 47.693 C 189.307 48.022,187.248 48.777,182.969 53.906 C 181.953 55.124,178.485 58.878,175.262 62.248 C 172.038 65.619,166.178 71.771,162.240 75.920 C 152.014 86.692,141.834 97.239,133.971 105.208 C 127.355 111.913,126.302 113.167,126.302 114.336 C 126.302 115.791,128.000 117.830,138.643 129.161 C 146.118 137.120,146.049 137.044,150.428 142.081 C 152.556 144.529,155.885 148.338,157.827 150.545 C 159.768 152.752,162.226 155.612,163.289 156.901 C 164.351 158.190,166.630 160.892,168.353 162.906 C 172.061 167.242,180.508 177.439,182.685 180.208 C 183.529 181.283,185.172 183.275,186.334 184.635 C 187.497 185.996,189.665 188.633,191.153 190.495 C 204.656 207.401,206.284 208.651,215.754 209.388 C 222.293 209.897,225.731 211.596,223.763 213.345 C 222.695 214.294,221.807 214.320,190.052 214.321 C 154.894 214.323,155.340 214.348,155.823 212.421 C 156.032 211.591,156.783 211.251,159.375 210.815 C 171.062 208.850,172.560 208.206,172.031 205.383 C 171.780 204.046,165.417 195.512,158.713 187.522 C 157.562 186.149,155.290 183.385,153.664 181.380 C 152.038 179.375,149.855 176.738,148.812 175.521 C 147.768 174.303,145.294 171.361,143.314 168.982 C 141.334 166.603,138.073 162.688,136.068 160.281 C 134.063 157.874,130.892 154.136,129.022 151.976 C 127.152 149.815,124.204 146.348,122.470 144.271 C 119.269 140.436,114.721 135.123,111.970 132.005 C 110.073 129.855,109.066 129.360,108.250 130.176 L 107.682 130.744 107.682 165.697 C 107.682 198.582,107.710 200.782,108.159 202.865 C 109.257 207.967,110.965 208.961,119.311 209.350 C 124.384 209.587,125.455 209.842,126.050 210.952 C 126.523 211.838,126.249 213.042,125.437 213.646 L 124.701 214.193 95.607 214.193 C 63.482 214.193,65.104 214.276,65.104 212.631 C 65.104 211.610,66.323 211.168,69.905 210.893 C 78.222 210.254,81.745 208.668,82.533 205.208 C 82.924 203.493,82.912 56.229,82.521 54.818 C 81.687 51.808,78.765 50.580,70.443 49.745 C 65.982 49.297,64.583 48.579,64.583 46.737 C 64.583 44.494,66.728 43.923,72.448 44.640 M338.281 44.921 C 339.403 45.937,339.004 47.060,332.819 60.286 C 331.077 64.010,328.271 69.753,326.582 73.047 C 320.536 84.842,311.057 102.981,303.652 116.927 C 301.256 121.439,297.856 127.884,296.095 131.250 C 294.334 134.616,290.467 141.940,287.500 147.526 C 284.533 153.112,279.197 163.190,275.642 169.922 C 272.087 176.654,268.869 182.689,268.491 183.333 C 268.114 183.978,267.373 185.354,266.846 186.392 C 265.312 189.409,259.658 200.243,258.724 201.953 C 255.800 207.306,257.413 208.299,271.238 209.650 C 284.198 210.918,288.816 210.932,302.083 209.743 C 320.985 208.049,332.007 198.281,336.880 178.906 C 338.355 173.041,339.107 169.490,339.443 166.797 C 340.219 160.575,341.458 158.073,343.763 158.073 C 344.865 158.073,345.707 158.828,346.111 160.180 C 346.534 161.595,345.862 169.119,344.914 173.568 C 344.578 175.143,344.173 177.897,344.014 179.688 C 343.687 183.372,343.380 185.510,342.843 187.843 C 342.640 188.728,342.347 190.977,342.194 192.839 C 341.837 197.166,341.474 199.960,340.994 202.063 C 340.784 202.983,340.456 205.682,340.265 208.062 C 339.892 212.713,339.699 213.319,338.419 213.860 C 336.995 214.461,229.821 214.337,228.715 213.732 C 227.792 213.228,227.450 212.375,227.725 211.263 C 227.941 210.387,232.740 201.070,249.287 169.401 C 253.559 161.226,259.334 150.291,261.461 146.354 C 262.428 144.564,264.597 140.462,266.281 137.240 C 267.965 134.017,272.243 125.931,275.786 119.271 C 279.330 112.611,286.034 100.013,290.683 91.276 C 309.251 56.386,310.742 53.285,309.754 51.613 C 308.760 49.930,307.218 49.527,297.917 48.518 C 288.550 47.501,271.296 48.522,266.477 50.378 C 265.937 50.586,264.811 50.949,263.975 51.184 C 253.378 54.169,249.362 59.647,244.508 77.734 C 242.895 83.744,242.773 84.278,242.220 87.760 C 241.038 95.187,239.121 98.033,236.524 96.214 C 235.190 95.280,235.335 88.839,236.859 81.393 C 237.209 79.681,237.622 76.986,237.777 75.403 C 237.931 73.821,238.346 71.255,238.700 69.701 C 239.054 68.147,239.519 65.451,239.732 63.711 C 239.946 61.971,240.360 59.551,240.652 58.333 C 240.944 57.116,241.402 54.711,241.670 52.990 C 242.492 47.718,243.568 45.000,245.052 44.454 C 246.403 43.956,337.720 44.414,338.281 44.921 " stroke="none" fill="#74746c" fill-rule="evenodd"></path></g></svg>