<?xml version="1.0" encoding="utf-8"?>
<!-- Generator: Adobe Illustrator 24.3.0, SVG Export Plug-In . SVG Version: 6.00 Build 0)  -->
<svg version="1.0" id="katman_1" xmlns="http://www.w3.org/2000/svg" xmlns:xlink="http://www.w3.org/1999/xlink" x="0px" y="0px"
	 viewBox="0 0 408 284" style="enable-background:new 0 0 408 284;" xml:space="preserve">
<style type="text/css">
	.st0{fill:#000;}
</style>
<g>
	<path class="st0" d="M224.1,52c42.8,0,77.6,34.09,78.39,76.45l0.01,1.48l-0.01,0.87l1.46,0.76c16.18,8.77,26.94,25.33,27.96,44.02
		l0.06,1.52l0.02,1.42c0,29.12-23.4,52.75-52.43,53.29l-1.36,0.01H130.05C100.09,231.36,76,207.1,76,177.28
		c0-17.39,8.27-33.33,21.84-43.51l1.29-0.94l0.27-0.19l-0.14-0.68c-0.19-1.1-0.34-2.22-0.44-3.35l-0.11-1.69l-0.04-1.71
		c0-21.52,17.55-38.95,39.17-38.95c5.62,0,11.07,1.2,16.06,3.45l1.48,0.71l0.92,0.48l0.98-1.62c13.48-21.89,37.08-36.07,63.43-37.19
		l1.72-0.05L224.1,52z M224.1,63.13c-26.18,0-49.59,15.02-60.69,38.11c-1.53,3.19-5.61,4.16-8.41,2
		c-4.91-3.78-10.88-5.86-17.15-5.86c-15.5,0-28.04,12.46-28.04,27.82c0,2.85,0.43,5.64,1.26,8.27c0.78,2.47-0.24,5.15-2.47,6.47
		c-13.22,7.81-21.46,21.85-21.46,37.33c0,23.31,18.53,42.37,41.76,43.38l1.25,0.04h148.1c23.53,0.14,42.63-18.78,42.63-42.17
		c0-17.24-10.49-32.57-26.27-39.1c-2-0.83-3.33-2.74-3.43-4.87l0-0.59l0.15-2.41l0.05-1.25l-0.01-1.8
		C290.59,92.28,260.78,63.13,224.1,63.13z M240.27,133.62c17.52,0,31.88,13.36,31.88,30.05s-14.36,30.05-31.88,30.05
		c-10.55,0-19.39-5.28-31.2-16.73l-2.58-2.55l-3.44-3.53c-4.35-4.64-6.61-7.13-6.77-7.47l-1.32-1.36l-2.38-2.4
		c-1.55-1.53-3.04-2.94-4.46-4.23l-2.09-1.84c-7.15-6.11-12.77-8.89-18.29-8.89c-11.54,0-20.75,8.56-20.75,18.92
		c0,10.36,9.2,18.92,20.75,18.92c6,0,10.48-1.97,14.58-5.61c0.52-0.47,1.04-0.95,1.57-1.49l2.94-3.13c2.11-2.24,5.63-2.35,7.87-0.24
		c2.09,1.97,2.32,5.16,0.63,7.4l-0.51,0.59l-2.03,2.19c-1.05,1.11-2.02,2.07-3.07,3c-6.01,5.35-13.03,8.43-21.98,8.43
		c-17.52,0-31.88-13.36-31.88-30.05s14.36-30.05,31.88-30.05c11.68,0,21.26,6.48,35.11,20.62c5.75,6.09,8.72,9.3,8.88,9.64
		l2.53,2.59c11.12,11.18,18.65,16.12,26.01,16.12c11.54,0,20.75-8.56,20.75-18.92c0-10.36-9.2-18.92-20.75-18.92
		c-6,0-10.48,1.97-14.58,5.61c-0.52,0.47-1.04,0.95-1.57,1.49l-1.31,1.37l-1.63,1.76c-2.11,2.24-5.63,2.35-7.87,0.24
		c-2.24-2.11-2.35-5.63-0.24-7.87l2.15-2.32c1.05-1.11,2.02-2.07,3.07-3C224.3,136.7,231.32,133.62,240.27,133.62z"/>
</g>
</svg>
